<?xml version="1.0" encoding="UTF-8"?>
<!DOCTYPE svg PUBLIC "-//W3C//DTD SVG 1.1//EN" "http://www.w3.org/Graphics/SVG/1.1/DTD/svg11.dtd">
<!-- Creator: CorelDRAW 2017 -->
<svg xmlns="http://www.w3.org/2000/svg"  width="44px" height="20px" version="1.1" style="shape-rendering:geometricPrecision; text-rendering:geometricPrecision; image-rendering:optimizeQuality; fill-rule:evenodd; clip-rule:evenodd"
viewBox="0 0 589.97 269.99"
 xmlns:xlink="http://www.w3.org/1999/xlink">
 <defs>
  <style type="text/css">
   <![CDATA[
    .fil0 {fill:#00E1FF}
   ]]>
  </style>
 </defs>
 <g id="Layer_x0020_1">
  <metadata id="CorelCorpID_0Corel-Layer"/>
  <g id="_2239589501424">
   <path class="fil0" d="M220.27 171.65l0.19 98.34 -85.48 0 0 -168.81c77.28,3.31 85.22,34.76 85.29,70.47z"/>
   <path class="fil0" d="M104.02 82.68l137.58 0.19 0 -82.55 -241.6 0c4.89,74.63 51.31,82.29 104.02,82.36z"/>
   <g>
    <path class="fil0" d="M474.92 112.04l0.19 156.32 -85.46 0 0 -268.36c77.26,5.26 85.2,55.26 85.27,112.04z"/>
    <path class="fil0" d="M360.06 113.66l0.19 156.33c-65.46,-1.43 -85.82,-54.67 -85.82,-104.78l0.37 -163.59c77.25,5.27 85.19,55.27 85.26,112.04z"/>
    <path class="fil0" d="M589.78 112.04l0.19 156.32 -85.46 0 0 -268.36c77.26,5.26 85.2,55.26 85.27,112.04z"/>
    <path class="fil0" d="M375.48 82.36l132.61 0.19 0 -82.55 -232.88 0c4.72,74.63 49.46,82.29 100.27,82.36z"/>
   </g>
  </g>
 </g>
</svg>
